<?xml version="1.0" standalone="no"?>
<!DOCTYPE svg PUBLIC "-//W3C//DTD SVG 20010904//EN"
 "http://www.w3.org/TR/2001/REC-SVG-20010904/DTD/svg10.dtd">
<svg version="1.0" xmlns="http://www.w3.org/2000/svg"
 width="476.000000pt" height="476.000000pt" viewBox="0 0 476.000000 476.000000"
 preserveAspectRatio="xMidYMid meet">
<metadata>
Created by potrace 1.11, written by Peter Selinger 2001-2013
</metadata>
<g transform="translate(0.000000,476.000000) scale(0.100000,-0.100000)"
fill="#000000" stroke="none">
<path d="M2045 4733 c-240 -32 -528 -123 -755 -239 -515 -262 -919 -710 -1135
-1258 -59 -150 -118 -383 -139 -544 -21 -162 -21 -462 0 -624 64 -498 297
-977 653 -1342 332 -339 719 -556 1191 -665 170 -40 289 -51 530 -51 323 0
540 36 805 132 852 310 1453 1074 1556 1977 17 155 7 505 -20 656 -84 472
-298 897 -630 1247 -353 372 -896 645 -1419 712 -156 20 -484 20 -637 -1z
m-394 -1013 c46 -13 111 -69 135 -117 16 -31 20 -69 24 -210 l5 -172 180 156
c286 248 335 282 472 323 67 20 88 21 350 18 271 -4 280 -4 345 -30 99 -37
171 -84 245 -158 85 -86 136 -166 170 -265 26 -75 28 -90 28 -256 0 -175 0
-176 -28 -217 -43 -65 -97 -96 -177 -100 -81 -5 -130 16 -183 78 -44 52 -57
103 -57 230 0 80 -4 109 -19 139 -24 46 -91 108 -128 118 -16 5 -113 8 -218 8
-186 0 -191 -1 -245 -27 -37 -18 -167 -126 -398 -328 l-342 -302 0 -657 0
-657 -26 -52 c-90 -180 -356 -163 -413 27 -17 57 -16 2248 1 2305 15 51 93
131 139 145 45 12 96 13 140 1z"/>
</g>
</svg>
